<svg xmlns="http://www.w3.org/2000/svg" version="1.1" xmlns:xlink="http://www.w3.org/1999/xlink" xmlns:svgjs="http://svgjs.dev/svgjs" width="1500" height="1500" viewBox="0 0 1500 1500"><rect width="1500" height="1500" fill="#ffffff"></rect><g transform="matrix(0.6666666666666666,0,0,0.6666666666666666,250.00007343750008,187.66666666666674)"><svg viewBox="0 0 320 360" data-background-color="#ffffff" preserveAspectRatio="xMidYMid meet" height="1687" width="1500" xmlns="http://www.w3.org/2000/svg" xmlns:xlink="http://www.w3.org/1999/xlink"><g id="tight-bounds" transform="matrix(1,0,0,1,0.000023499999997511622,0)"><svg viewBox="0 0 320 360" height="360" width="320"><g><svg></svg></g><g><svg viewBox="0 0 320 360" height="360" width="320"><g><path transform="translate(-74.99272,-51.79039) scale(4.65793,4.65793)" d="M20.6 59.9l0.8 1-0.4-1.3c-0.1-0.6-0.8 0.1-0.4 0.3M21.5 59.3c0.3 0.5 0.6 1 0.6 1.5 0 0.7 0.6 1 1.1 1.2-0.7-0.8-1.1-3-1.7-2.7M59.9 16.9c1.7 0 3.3-0.2 5.1 0.2 4.4 1.1 8.1 3.3 10.6 6.4l7 11.2c0.3 2.8 0.9 5.9 0.8 9.3 0.7 0 0.6-1 1.4-1.2-0.8 2-1.2 4.5-1.4 7.4-0.5-1.6 0-4 0.1-5.3-0.7 1.1-1.1 0.3-1.1-0.2 0.1-0.8-0.3-0.7-0.6-1-1.1-1-1.8-2.1-2.6-3.8 0.5-1.3 0.6-3.2-1-4.2-0.5-0.3-1.1-0.8-1.4-1.6-0.4-1.1-1.1-2.4-0.9-4.1 0.1-0.5-1.5 1.1-2.4 0.4-3.9-2.7-7.8-5.8-12.5-8.4-2.5 0-4.3-0.9-5.2-2-0.8-1-0.2-2.3 1-2.4 0.7 0 1.5-0.2 2.1 0.2 0.1-0.4 0.5-0.9 1-0.9M50 14.6l0.2 0.1c1 0.2 1.5 1.6 2.6 1.1 0 0.7 0.1 1.4-0.1 1.9-0.3 0.8-1.2 0.8-1.9 0.8-6.7-0.4-10.6 2.4-14.7 4.8-1.1 0.7-2.3 1.2-3.2 2.1-4.3 4-9 7.7-10.1 15.1l-0.9 8.2c-0.1 0.9-1.1 1.8-0.9 2.9l0.7 4.9c-0.7-0.7-1.1 0.2-0.9 0.6 0.1 0.3 0.5 1.3 1.1 0.4 0.8 1.5 1.6 4.4 2.7 5.7 3.4 4 7.8 7.6 11.4 11.2 0.9-0.2 1.6-0.2 1.8-0.8 0.3 0.6-0.3 1.2-0.8 1.3 1.6 1 3.4 1.9 5.8 2.1 3.1 0.2 6 0.7 8.7 1.4 1.4-0.4 2.8-0.6 4.3-0.7 0.5 0 0.8-0.8 1.4-1l0.1-1c0.6 0.9 0.5-0.3 0.1-0.9 0.7 0.6 0.9 1.1 1.2 1.5 0-0.3 0.8-1.4 0.8-0.1l0.2-1.3c0.3-0.2 0.4 1.1 0.7 0.2 0.3-0.9 0.9-0.2 1.5-0.5-0.2 0.4-0.1 1.2 0.6 0.7l0.8-0.7c0.5 1.2 1.3 0.7 1.7 0.5 4.4-2.8 8.8-6.1 13-9.4l-0.1 1.3 0.5-1.6c0.5 0.5 0.9 0.1 1.1-0.2 0.6-1 1.4-2 2.7-2.9-1.6 4.3-3.5 7.7-5.9 10.5l-1 1.2c0 0.7-0.2 1.6-1 1.7-0.4 0.1-1.2-0.2-1.8 0.4-0.3 0.4 0.7 1.2-0.1 0.6-0.7-0.5-1.4 0-2.2 0.2-0.6 0.2 0.4 0.8 0.6 1.2 0.2 0.4 0.4 0.8 0.3 1.3l-1.1-1.2c-1.3 0.7-2.1 2-3.2 3-0.5 0.4-0.3 1.1-0.3 1.7-0.7 0-1.5-0.2-1.9 0.2-0.3 0.4-0.2 1-0.2 1.6-1-0.1-1.1-1.6-2-1.3-0.9 0.2-1.9 0.3-2.7 0.8 0.6 1.2-1 0.5-0.8 0.7-1.5-0.9-2.8-1.6-4.4-1-3.4-1.1-7.6-0.6-10.7-0.2 0-0.5 0.1-1-0.1-1.1-0.2 0.5-0.8 0.3-0.7 0.3-1.9-1.3-3.8-2.1-5.8-3.2-1.8 0.2-3.5-0.7-4-1.2-1.4-1.3-3-0.6-4.3-0.9-2.8-0.7-3.8-3.6-4.1-5.6-0.2-1-1-1.4-1.3-1.3-1.3-4.2-3.3-8-4.9-11.9-0.4-1-0.3-2-0.3-3.1 0.5 0.2 1 0.1 0.9-0.6-0.5-3.3-1.7-5.8-3-8.2 0.7-3.4 0.8-7.4 2.4-10.4 1.4-2.7 4-4.1 5.8-6.4 0.6-0.8 0.6-1.9 1.2-2.6 2-2 4-4.1 6.2-5.9 1-0.8 2.2 0 3.7-0.3 0.5-1.8 2.5-3.4 4.4-2.9 0.8 0.2 2.4-1.9 2.9-2.1 0.8-0.3 0.4 0.8 0.4 1.5 1.9-1.5 4.5-2.3 6.9-3.2" fill="#c56e33" fill-rule="nonzero" stroke="none" stroke-width="1" stroke-linecap="butt" stroke-linejoin="miter" stroke-miterlimit="10" stroke-dasharray="" stroke-dashoffset="0" font-family="none" font-weight="none" font-size="none" text-anchor="none" style="mix-blend-mode: normal" data-fill-palette-color="tertiary"></path></g><g transform="matrix(1,0,0,1,64,107.32188647331128)"><svg viewBox="0 0 192 145.35622705337744" height="145.35622705337744" width="192"><g><svg viewBox="0 0 192 145.35622705337744" height="145.35622705337744" width="192"><g><svg viewBox="0 0 192 145.35622705337744" height="145.35622705337744" width="192"><g transform="matrix(1,0,0,1,0,87.85599087009922)"><svg viewBox="0 0 192 57.50023618327823" height="57.50023618327823" width="192"><g id="textblocktransform"><svg viewBox="0 0 192 57.50023618327823" height="57.50023618327823" width="192" id="textblock"><g><svg viewBox="0 0 192 57.50023618327823" height="57.50023618327823" width="192"><g transform="matrix(1,0,0,1,0,0)"><svg width="192" viewBox="1.4 -31.1 105.83999999999999 31.700000000000003" height="57.50023618327823" data-palette-color="#c56e33"><path d="M10.45 0.6L10.45 0.6Q7.85 0.6 5.5-0.35 3.15-1.3 1.4-2.75L1.4-2.75 3.45-5.5Q5.05-4.2 6.73-3.4 8.4-2.6 10.6-2.6L10.6-2.6Q13-2.6 14.2-3.7 15.4-4.8 15.4-6.4L15.4-6.4Q15.4-7.35 14.9-8.05 14.4-8.75 13.63-9.28 12.85-9.8 11.85-10.2 10.85-10.6 9.85-11L9.85-11Q8.55-11.45 7.25-12.03 5.95-12.6 4.93-13.43 3.9-14.25 3.25-15.35 2.6-16.45 2.6-18L2.6-18Q2.6-19.45 3.18-20.73 3.75-22 4.83-22.93 5.9-23.85 7.45-24.38 9-24.9 10.95-24.9L10.95-24.9Q13.25-24.9 15.18-24.1 17.1-23.3 18.5-22.15L18.5-22.15 16.55-19.55Q15.3-20.5 13.95-21.1 12.6-21.7 11-21.7L11-21.7Q8.7-21.7 7.63-20.65 6.55-19.6 6.55-18.2L6.55-18.2Q6.55-17.35 7-16.73 7.45-16.1 8.2-15.63 8.95-15.15 9.93-14.78 10.9-14.4 11.95-14L11.95-14Q13.25-13.5 14.58-12.95 15.9-12.4 16.95-11.58 18-10.75 18.68-9.55 19.35-8.35 19.35-6.65L19.35-6.65Q19.35-5.15 18.78-3.85 18.2-2.55 17.07-1.55 15.95-0.55 14.28 0.03 12.6 0.6 10.45 0.6ZM31.7 0.6L31.7 0.6Q29.75 0.6 28.42 0 27.1-0.6 26.27-1.65 25.45-2.7 25.1-4.2 24.75-5.7 24.75-7.5L24.75-7.5 24.75-20.95 21.15-20.95 21.15-24.05 24.95-24.3 25.45-31.1 28.9-31.1 28.9-24.3 35.45-24.3 35.45-20.95 28.9-20.95 28.9-7.45Q28.9-5.2 29.72-3.98 30.55-2.75 32.65-2.75L32.65-2.75Q33.3-2.75 34.05-2.95 34.8-3.15 35.4-3.4L35.4-3.4 36.2-0.3Q35.2 0.05 34.02 0.33 32.85 0.6 31.7 0.6ZM50.1 0.6L50.1 0.6Q47.65 0.6 45.52-0.28 43.4-1.15 41.82-2.78 40.25-4.4 39.35-6.75 38.45-9.1 38.45-12.1L38.45-12.1Q38.45-15.1 39.37-17.48 40.3-19.85 41.82-21.5 43.35-23.15 45.3-24.03 47.25-24.9 49.35-24.9L49.35-24.9Q51.65-24.9 53.47-24.1 55.3-23.3 56.52-21.8 57.75-20.3 58.4-18.2 59.05-16.1 59.05-13.5L59.05-13.5Q59.05-12.85 59.02-12.23 59-11.6 58.9-11.15L58.9-11.15 42.5-11.15Q42.75-7.25 44.92-4.98 47.1-2.7 50.6-2.7L50.6-2.7Q52.34-2.7 53.82-3.23 55.3-3.75 56.65-4.6L56.65-4.6 58.1-1.9Q56.5-0.9 54.55-0.15 52.59 0.6 50.1 0.6ZM42.45-14.1L42.45-14.1 55.45-14.1Q55.45-17.8 53.87-19.73 52.3-21.65 49.45-21.65L49.45-21.65Q48.15-21.65 46.97-21.15 45.8-20.65 44.85-19.68 43.9-18.7 43.27-17.3 42.65-15.9 42.45-14.1ZM75.34 0L70.54 0 61.79-24.3 66.04-24.3 70.64-10.5Q71.19-8.7 71.77-6.9 72.34-5.1 72.89-3.35L72.89-3.35 73.09-3.35Q73.64-5.1 74.19-6.9 74.74-8.7 75.29-10.5L75.29-10.5 79.89-24.3 83.94-24.3 75.34 0ZM98.29 0.6L98.29 0.6Q95.84 0.6 93.72-0.28 91.59-1.15 90.02-2.78 88.44-4.4 87.54-6.75 86.64-9.1 86.64-12.1L86.64-12.1Q86.64-15.1 87.57-17.48 88.49-19.85 90.02-21.5 91.54-23.15 93.49-24.03 95.44-24.9 97.54-24.9L97.54-24.9Q99.84-24.9 101.67-24.1 103.49-23.3 104.72-21.8 105.94-20.3 106.59-18.2 107.24-16.1 107.24-13.5L107.24-13.5Q107.24-12.85 107.22-12.23 107.19-11.6 107.09-11.15L107.09-11.15 90.69-11.15Q90.94-7.25 93.12-4.98 95.29-2.7 98.79-2.7L98.79-2.7Q100.54-2.7 102.02-3.23 103.49-3.75 104.84-4.6L104.84-4.6 106.29-1.9Q104.69-0.9 102.74-0.15 100.79 0.6 98.29 0.6ZM90.64-14.1L90.64-14.1 103.64-14.1Q103.64-17.8 102.07-19.73 100.49-21.65 97.64-21.65L97.64-21.65Q96.34-21.65 95.17-21.15 93.99-20.65 93.04-19.68 92.09-18.7 91.47-17.3 90.84-15.9 90.64-14.1Z" opacity="1" transform="matrix(1,0,0,1,0,0)" fill="#c56e33" class="wordmark-text-0" data-fill-palette-color="primary" id="text-0"></path></svg></g></svg></g></svg></g></svg></g><g transform="matrix(1,0,0,1,55.99305325137519,0)"><svg viewBox="0 0 80.01389349724963 79.46532640529053" height="79.46532640529053" width="80.01389349724963"><g><svg xmlns="http://www.w3.org/2000/svg" xmlns:xlink="http://www.w3.org/1999/xlink" version="1.1" x="0" y="0" viewBox="0.572 1 62.428 62" style="enable-background:new 0 0 64 64;" xml:space="preserve" height="79.46532640529053" width="80.01389349724963" class="icon-icon-0" data-fill-palette-color="accent" id="icon-0"><g fill="#c56e33" data-fill-palette-color="accent"><path d="M63 50.782v-7.564l-2.736-0.678c-0.205-0.612-0.448-1.204-0.728-1.77l1.452-2.41-5.349-5.348-2.41 1.451c-0.566-0.28-1.158-0.523-1.769-0.729L50.782 31h-7.564l-0.678 2.735c-0.611 0.205-1.203 0.448-1.769 0.729l-2.41-1.451-5.349 5.348 0.532 0.883L27 38.153v-0.258c2.257-1.04 4.136-2.757 5.376-4.895H34c1.654 0 3-1.346 3-3 1.654 0 3-1.346 3-3v-4c0-1.302-0.839-2.402-2-2.816V16.85C38 8.11 30.89 1 22.151 1c-4.234 0-8.214 1.648-11.207 4.643L10.48 6.105C7.828 6.897 6 9.332 6 12.123v8.061C4.839 20.598 4 21.698 4 23v4c0 1.654 1.346 3 3 3h3.395c0.909 3.513 3.367 6.402 6.605 7.895v0.258l-7.709 1.285c-2.487 0.415-4.566 2.145-5.428 4.513L0.572 53H34.36c0.036 0.076 0.067 0.155 0.104 0.229l-1.452 2.41 5.349 5.348 2.41-1.451c0.566 0.28 1.158 0.523 1.769 0.729L43.218 63h7.564l0.678-2.735c0.611-0.205 1.203-0.448 1.769-0.729l2.41 1.451 5.349-5.348-1.452-2.41c0.28-0.565 0.523-1.157 0.728-1.77L63 50.782zM31.879 51H23v-6.101c2.222-0.453 3.898-2.388 3.982-4.722l7.207 1.201c-0.165 0.379-0.32 0.764-0.453 1.162L31 43.218v7.564L31.879 51zM19 38.605C19.961 38.854 20.963 39 22 39s2.039-0.146 3-0.395V40c0 1.654-1.346 3-3 3s-3-1.346-3-3V38.605zM34 31h-0.7c0.116-0.327 0.217-0.66 0.305-1H35C35 30.552 34.551 31 34 31zM38 27c0 0.552-0.449 1-1 1v-4h-2v4h-1.051C33.977 27.669 34 27.338 34 27v-5h3c0.551 0 1 0.448 1 1V27zM7 28c-0.551 0-1-0.448-1-1v-4c0-0.552 0.449-1 1-1h3v5c0 0.338 0.023 0.669 0.051 1H7zM10 18v2H8v-7.877c0-1.968 1.333-3.676 3.243-4.153l0.269-0.066 0.847-0.847C14.974 4.44 18.451 3 22.151 3 29.787 3 36 9.213 36 16.85V20h-2v-2h-1c-3.602 0-6.988-1.402-9.535-3.949L22 12.585l-1.464 1.466C17.988 16.598 14.602 18 11 18H10zM12 27v-7.031c3.76-0.238 7.262-1.816 9.95-4.504l0.05-0.05 0.05 0.05c2.688 2.688 6.19 4.266 9.95 4.504V27c0 1.422-0.303 2.774-0.841 4h-5.343c-0.414-1.161-1.514-2-2.816-2h-2c-1.654 0-3 1.346-3 3s1.346 3 3 3h2c1.302 0 2.402-0.839 2.816-2h4.165c-1.827 2.423-4.719 4-7.981 4C16.486 37 12 32.514 12 27zM24 32c0 0.552-0.449 1-1 1h-2c-0.551 0-1-0.448-1-1s0.449-1 1-1h2C23.551 31 24 31.448 24 32zM5.743 44.634c0.615-1.691 2.101-2.927 3.877-3.224l7.398-1.233c0.084 2.334 1.76 4.269 3.982 4.722V51H10.281l0.689-2.758-1.94-0.484L8.219 51H3.428L5.743 44.634zM58.678 49.793l-0.161 0.554c-0.25 0.862-0.587 1.682-1.003 2.436l-0.278 0.505 1.232 2.044-3.136 3.137-2.044-1.232-0.505 0.278c-0.756 0.416-1.576 0.754-2.436 1.004l-0.554 0.16L49.218 61h-4.436l-0.575-2.322-0.554-0.16c-0.86-0.25-1.679-0.588-2.436-1.004l-0.505-0.278-2.044 1.232-3.136-3.137 1.232-2.044-0.278-0.505c-0.416-0.754-0.753-1.573-1.003-2.436l-0.161-0.554L33 49.218v-4.436l2.322-0.575 0.161-0.554c0.25-0.862 0.587-1.682 1.003-2.436l0.278-0.505-1.232-2.044 3.136-3.137 2.044 1.232 0.505-0.278c0.756-0.416 1.576-0.754 2.436-1.004l0.554-0.16L44.782 33h4.436l0.575 2.322 0.554 0.16c0.86 0.25 1.679 0.588 2.436 1.004l0.505 0.278 2.044-1.232 3.136 3.137-1.232 2.044 0.278 0.505c0.416 0.754 0.753 1.573 1.003 2.436l0.161 0.554L61 44.782v4.436L58.678 49.793z" fill="#c56e33" data-fill-palette-color="accent"></path><path d="M47 37c-5.514 0-10 4.486-10 10s4.486 10 10 10 10-4.486 10-10S52.514 37 47 37zM47 55c-4.411 0-8-3.589-8-8s3.589-8 8-8 8 3.589 8 8S51.411 55 47 55z" fill="#c56e33" data-fill-palette-color="accent"></path><path d="M47 41c-3.309 0-6 2.691-6 6s2.691 6 6 6v-2c-2.206 0-4-1.794-4-4s1.794-4 4-4 4 1.794 4 4h2C53 43.691 50.309 41 47 41z" fill="#c56e33" data-fill-palette-color="accent"></path><circle cx="16" cy="23" r="1.0" fill="#c56e33" data-fill-palette-color="accent"></circle><circle cx="28" cy="23" r="1.0" fill="#c56e33" data-fill-palette-color="accent"></circle></g></svg></g></svg></g><g></g></svg></g></svg></g></svg></g></svg></g><defs></defs></svg><rect width="320" height="360" fill="none" stroke="none" visibility="hidden"></rect></g></svg></g></svg>